<?xml version="1.0" encoding="UTF-8"?>
<!DOCTYPE svg PUBLIC "-//W3C//DTD SVG 1.1//EN" "http://www.w3.org/Graphics/SVG/1.1/DTD/svg11.dtd">
<svg xmlns="http://www.w3.org/2000/svg" version="1.1" width="983px" height="983px" style="shape-rendering:geometricPrecision; text-rendering:geometricPrecision; image-rendering:optimizeQuality; fill-rule:evenodd; clip-rule:evenodd" xmlns:xlink="http://www.w3.org/1999/xlink">
<g><path style="opacity:0.996" fill="#221e1f" d="M 684.5,148.5 C 716.625,144.905 746.958,147.405 775.5,156C 797.743,163.532 817.576,175.032 835,190.5C 835.667,191.5 835.667,192.5 835,193.5C 819.287,212.952 803.121,231.952 786.5,250.5C 777.659,244.506 768.659,238.672 759.5,233C 737.197,222.941 714.197,220.941 690.5,227C 662.159,238.81 645.659,259.977 641,290.5C 636.817,319.279 644.651,344.112 664.5,365C 685.405,382.561 709.405,388.895 736.5,384C 746.91,382.874 756.41,379.374 765,373.5C 765.5,362.172 765.667,350.838 765.5,339.5C 745.833,339.5 726.167,339.5 706.5,339.5C 706.5,318.5 706.5,297.5 706.5,276.5C 753.168,276.333 799.835,276.5 846.5,277C 847.497,322.428 847.83,367.928 847.5,413.5C 846.127,413.343 844.793,413.51 843.5,414C 816.086,436.483 784.752,450.483 749.5,456C 698.792,464.529 652.459,454.195 610.5,425C 560.182,381.37 542.682,326.87 558,261.5C 574.594,208.573 609.094,173.073 661.5,155C 669.946,153.097 677.612,150.93 684.5,148.5 Z"/></g>
<g><path style="opacity:0.995" fill="#231f1f" d="M 132.5,151.5 C 160.833,151.5 189.167,151.5 217.5,151.5C 217.5,252.167 217.5,352.833 217.5,453.5C 189.167,453.5 160.833,453.5 132.5,453.5C 132.5,352.833 132.5,252.167 132.5,151.5 Z"/></g>
<g><path style="opacity:0.996" fill="#221f1f" d="M 365.5,151.5 C 392.741,151.172 419.907,151.505 447,152.5C 490.179,252.199 532.679,352.199 574.5,452.5C 550.614,455.697 529.28,449.863 510.5,435C 490.419,416.922 470.919,398.088 452,378.5C 427.139,352.307 402.306,326.14 377.5,300C 373.969,298.394 370.302,297.228 366.5,296.5C 352.8,297.647 339.133,297.813 325.5,297C 328.894,307.068 332.06,317.235 335,327.5C 346.175,369.534 357.341,411.534 368.5,453.5C 325.167,453.5 281.833,453.5 238.5,453.5C 238.953,449.307 240.119,445.307 242,441.5C 283.072,344.783 324.238,248.116 365.5,151.5 Z"/></g>
<g><path style="opacity:0.997" fill="#0db89b" d="M 117.5,503.5 C 139.939,501.747 161.939,503.913 183.5,510C 202.153,516.32 218.153,526.654 231.5,541C 220.363,554.472 208.863,567.638 197,580.5C 184.709,568.571 170.209,560.405 153.5,556C 117.959,549.022 91.7921,561.522 75,593.5C 65.2867,619.431 66.6201,644.764 79,669.5C 99.2312,698.025 126.398,707.525 160.5,698C 174.971,692.6 187.637,684.433 198.5,673.5C 209.819,684.319 220.986,695.319 232,706.5C 232.667,707.833 232.667,709.167 232,710.5C 195.549,747.912 151.716,760.412 100.5,748C 51.2906,732.444 21.7906,699.278 12,648.5C 6.74614,615.268 14.0795,583.601 34,553.5C 55.2756,525.943 83.1089,509.276 117.5,503.5 Z"/></g>
<g><path style="opacity:0.999" fill="#0cb89b" d="M 532.5,559.5 C 536.833,559.5 541.167,559.5 545.5,559.5C 545.5,578.5 545.5,597.5 545.5,616.5C 510.55,615.614 491.383,632.614 488,667.5C 487.5,694.498 487.333,721.498 487.5,748.5C 469.5,748.5 451.5,748.5 433.5,748.5C 433.5,686.833 433.5,625.167 433.5,563.5C 451.5,563.5 469.5,563.5 487.5,563.5C 487.334,573.839 487.5,584.172 488,594.5C 496.646,574.783 511.479,563.116 532.5,559.5 Z"/></g>
<g><path style="opacity:0.997" fill="#0db89b" d="M 630.5,559.5 C 656.684,557.518 678.517,566.185 696,585.5C 696.5,578.174 696.666,570.841 696.5,563.5C 714.5,563.5 732.5,563.5 750.5,563.5C 750.667,616.501 750.5,669.501 750,722.5C 745.896,769.604 720.396,796.104 673.5,802C 637.434,807.489 601.767,801.656 566.5,784.5C 565.386,783.277 565.219,781.944 566,780.5C 572.568,768.624 578.068,756.29 582.5,743.5C 590.347,746.086 598.014,749.253 605.5,753C 628.002,760.723 650.668,761.389 673.5,755C 687.019,748.5 694.519,737.666 696,722.5C 696.667,717.167 696.667,711.833 696,706.5C 679.424,726.201 658.258,735.034 632.5,733C 587.957,727.124 562.79,701.957 557,657.5C 552.26,614.122 569.427,583.289 608.5,565C 615.823,562.575 623.157,560.742 630.5,559.5 Z M 648.5,604.5 C 686.417,606.003 701.583,625.337 694,662.5C 685.947,679.344 672.447,688.011 653.5,688.5C 619.349,684.202 605.849,665.202 613,631.5C 619.669,615.595 631.502,606.595 648.5,604.5 Z"/></g>
<g><path style="opacity:0.997" fill="#0db89b" d="M 860.5,559.5 C 899.552,557.217 930.718,571.55 954,602.5C 971.308,630.598 974.308,660.265 963,691.5C 944.512,731.009 913.345,751.343 869.5,752.5C 827.861,751.635 797.361,732.969 778,696.5C 763.474,660.861 767.474,627.528 790,596.5C 808.623,574.773 832.123,562.439 860.5,559.5 Z M 861.5,606.5 C 889.052,604.854 906.886,617.188 915,643.5C 919.358,664.759 913.524,682.592 897.5,697C 880.056,707.775 862.389,708.108 844.5,698C 827.219,684.256 820.386,666.423 824,644.5C 828.721,623.947 841.221,611.28 861.5,606.5 Z"/></g>
<g><path style="opacity:0.996" fill="#0db89b" d="M 307.5,561.5 C 319.838,561.333 332.171,561.5 344.5,562C 388.232,568.071 410.399,593.237 411,637.5C 411.667,674.167 411.667,710.833 411,747.5C 393.577,748.492 376.077,748.825 358.5,748.5C 358.666,742.491 358.499,736.491 358,730.5C 343.39,744.931 325.723,751.931 305,751.5C 283.784,752.383 266.117,745.05 252,729.5C 239.863,711.567 237.196,692.234 244,671.5C 252.243,654.109 265.743,642.943 284.5,638C 299.663,634.694 314.997,633.694 330.5,635C 339.971,636.026 349.137,638.193 358,641.5C 359,621.494 349.5,610.327 329.5,608C 309.226,606.388 289.726,609.555 271,617.5C 270.228,617.355 269.561,617.022 269,616.5C 264.43,603.456 260.263,590.289 256.5,577C 263.915,572.521 271.915,569.187 280.5,567C 289.551,564.719 298.551,562.885 307.5,561.5 Z M 322.5,667.5 C 335.182,667.464 347.516,669.464 359.5,673.5C 361.688,694.318 352.688,707.151 332.5,712C 321.286,714.844 310.619,713.511 300.5,708C 289.854,696.469 290.188,685.136 301.5,674C 308.216,670.503 315.216,668.336 322.5,667.5 Z"/></g>
</svg>
