<svg version="1.1" id="Layer_1" xmlns="http://www.w3.org/2000/svg" xmlns:xlink="http://www.w3.org/1999/xlink" x="0px" y="0px"
	 width="100%" viewBox="0 0 935 661" enable-background="new 0 0 935 661" xml:space="preserve">
<path fill="#FEFEFE" opacity="1.000000" stroke="none" 
	d="
M553.000000,662.000000 
	C368.666656,662.000000 184.833328,662.000000 1.000000,662.000000 
	C1.000000,441.666656 1.000000,221.333328 1.000000,1.000000 
	C312.666656,1.000000 624.333313,1.000000 936.000000,1.000000 
	C936.000000,221.333328 936.000000,441.666656 936.000000,662.000000 
	C808.500000,662.000000 681.000000,662.000000 553.000000,662.000000 
M646.677490,37.159138 
	C618.988770,44.668446 594.996948,58.481434 575.741821,79.843803 
	C547.049316,111.676262 535.394775,149.395981 538.945312,191.793304 
	C542.717712,236.840073 562.885620,272.871826 600.656921,298.072571 
	C631.795288,318.847870 666.658813,326.243011 703.782349,323.784149 
	C742.936279,321.190735 778.080688,307.971619 809.260315,284.115631 
	C812.294617,281.794067 813.665710,279.435791 813.646912,275.423004 
	C813.467224,236.924973 813.539551,198.425781 813.539612,159.926926 
	C813.539612,158.139343 813.539612,156.351761 813.539612,154.422516 
	C770.032471,154.422516 727.146240,154.422516 684.200317,154.422516 
	C684.200317,173.503128 684.200317,192.239365 684.200317,211.499908 
	C702.618042,211.499908 720.709167,211.499908 739.178589,211.499908 
	C739.178589,221.832642 739.065125,231.645538 739.248169,241.452896 
	C739.302612,244.366867 738.268616,245.892059 735.791565,247.318649 
	C724.656372,253.731567 712.485596,256.257324 699.899841,256.757111 
	C670.236938,257.934906 645.967590,247.661179 629.798889,221.869873 
	C619.584106,205.575867 616.627441,187.370560 619.049988,168.553986 
	C622.876892,138.828278 637.793823,116.530449 666.362671,105.774055 
	C688.887512,97.293297 711.423828,100.695091 732.657288,111.222115 
	C741.514832,115.613411 749.530579,121.702553 758.391479,127.312469 
	C773.236023,109.425568 788.389709,91.166107 803.935242,72.434502 
	C757.208435,34.417206 705.210571,23.118050 646.677490,37.159138 
M276.719849,234.161942 
	C264.865936,262.131500 253.012009,290.101044 241.039352,318.350708 
	C281.593414,318.350708 321.447937,318.350708 361.792267,318.350708 
	C348.359253,269.172607 335.054138,220.462769 321.663818,171.441040 
	C336.265015,171.441040 350.368927,171.081573 364.430695,171.692627 
	C367.966278,171.846268 372.123962,174.379181 374.712524,177.058456 
	C401.675293,204.965820 428.029938,233.467850 455.283844,261.083954 
	C470.693268,276.698151 487.002930,291.513092 503.753174,305.688293 
	C518.761414,318.389252 537.124878,319.913971 556.464233,317.772888 
	C555.378662,315.168549 554.450317,312.891541 553.484070,310.630737 
	C515.022705,220.635773 476.529968,130.654236 438.192749,40.606457 
	C436.604919,36.876949 434.704041,35.858463 430.831055,35.894474 
	C409.504333,36.092785 388.171875,36.175930 366.848328,35.848080 
	C361.985870,35.773323 359.970398,37.515137 358.195312,41.724091 
	C331.225708,105.672737 304.099274,169.555237 276.719849,234.161942 
M548.634033,539.823181 
	C558.201538,560.517639 573.778320,574.725220 595.746521,580.660400 
	C626.245728,588.900269 653.005920,582.530518 674.058472,557.089417 
	C674.255554,563.163696 674.406433,568.683655 673.706421,574.093445 
	C670.997498,595.028564 658.724243,607.270081 637.683594,610.088562 
	C618.615601,612.642944 600.151672,610.023315 582.380981,602.745361 
	C577.197632,600.622559 572.217468,598.003479 566.734558,595.418762 
	C561.108826,607.761780 555.630066,619.782288 550.125549,631.859253 
	C551.220703,632.640381 551.836731,633.209900 552.556580,633.574280 
	C573.860535,644.360107 596.772888,648.978333 620.322021,650.856140 
	C634.035767,651.949768 647.567810,649.843018 660.955261,647.086670 
	C683.730408,642.397522 702.402466,631.769226 713.056152,610.003235 
	C720.161804,595.486084 722.742371,579.920837 722.801575,563.966797 
	C722.966492,519.488220 722.858948,475.008575 722.859009,430.529358 
	C722.859009,428.768280 722.859009,427.007202 722.859009,425.209717 
	C706.194336,425.209717 690.265869,425.209717 673.682861,425.209717 
	C673.682861,432.283081 673.682861,439.113190 673.682861,446.836517 
	C671.793457,445.071320 670.652588,444.126648 669.651001,443.052124 
	C638.269165,409.384369 578.996155,416.856567 554.890625,454.821564 
	C537.906189,481.571228 537.613770,510.023468 548.634033,539.823181 
M140.369125,95.499840 
	C140.369125,169.749237 140.369125,243.998627 140.369125,318.372314 
	C166.973221,318.372314 193.005234,318.372314 219.212433,318.372314 
	C219.212433,224.154251 219.212433,130.288818 219.212433,36.305122 
	C192.874069,36.305122 166.825638,36.305122 140.369156,36.305122 
	C140.369156,55.915245 140.369156,75.207535 140.369125,95.499840 
M28.648548,459.196411 
	C15.160466,513.128784 44.942188,572.476318 95.694061,593.099304 
	C144.130569,612.781494 210.634155,597.808044 233.734543,561.265564 
	C223.221909,550.924011 212.682770,540.556335 202.228348,530.272095 
	C196.202164,534.806946 190.082260,539.991516 183.413315,544.332581 
	C151.620651,565.027649 110.449089,557.877014 90.827660,527.879639 
	C75.475731,504.409454 73.575111,479.053253 84.576500,453.467834 
	C94.229660,431.018005 111.644859,417.578827 136.364594,414.752441 
	C156.478577,412.452637 174.100571,418.927307 190.015305,430.817596 
	C193.699921,433.570496 197.225983,436.535614 201.103455,439.624939 
	C211.744980,427.335541 222.146820,415.322906 232.582870,403.270782 
	C231.714722,402.336060 231.290436,401.837158 230.823288,401.382263 
	C201.914566,373.233154 166.682907,364.472107 127.768364,369.213623 
	C77.036125,375.395050 39.925213,409.365448 28.648548,459.196411 
M744.127014,527.244202 
	C746.287292,540.811340 751.157715,553.386292 759.516479,564.236755 
	C784.466248,596.623962 817.937378,606.943176 857.102173,599.698792 
	C907.443420,590.386963 937.475403,540.784119 929.048584,496.184875 
	C921.444275,455.938721 887.515564,424.837341 846.496216,422.092102 
	C815.207886,419.998108 787.741028,428.412476 766.127747,451.909241 
	C746.724548,473.003235 740.228943,498.238770 744.127014,527.244202 
M382.499603,598.066895 
	C388.929504,598.066895 395.359375,598.066895 402.125824,598.066895 
	C402.125824,595.712830 402.125824,594.072327 402.125824,592.431763 
	C402.125824,561.775452 402.183594,531.118958 402.077209,500.463013 
	C402.055908,494.314850 401.698151,488.136078 401.002502,482.027527 
	C397.709930,453.115540 382.259491,433.824860 354.973236,426.924683 
	C322.184845,418.633118 290.220154,422.976074 259.329071,436.251923 
	C258.719696,436.513763 258.155212,436.880035 257.717072,437.117706 
	C261.940186,449.905548 265.941986,462.023224 270.047760,474.455719 
	C274.291748,473.068817 278.026306,471.750519 281.818298,470.626007 
	C298.625519,465.642029 315.691925,462.958374 333.033997,467.114258 
	C347.956451,470.690277 356.377136,483.612366 354.376556,498.648041 
	C354.057983,498.726471 353.706818,498.933075 353.426300,498.861755 
	C351.978577,498.493622 350.549438,498.052460 349.112885,497.640045 
	C324.314545,490.519989 299.526886,489.532532 275.110535,498.909973 
	C254.834824,506.697174 244.376236,522.077454 243.103455,543.597900 
	C241.785583,565.880493 249.931717,583.390381 270.189240,594.064270 
	C290.385529,604.705811 327.233398,605.688904 350.171356,583.899536 
	C351.269653,582.856201 352.424347,581.872131 354.567749,579.950562 
	C354.567749,586.896790 354.567749,592.324585 354.567749,598.066956 
	C363.868134,598.066956 372.683990,598.066956 382.499603,598.066895 
M521.947754,473.378906 
	C524.219727,473.220184 526.491699,473.061493 528.873535,472.895142 
	C528.873535,455.757935 528.873535,439.025848 528.873535,421.902252 
	C501.926117,420.403473 485.394714,434.258911 474.102783,457.021240 
	C474.102783,446.499664 474.102783,435.978088 474.102783,425.220764 
	C457.573853,425.220764 441.522461,425.220764 425.286438,425.220764 
	C425.286438,482.853912 425.286438,540.210266 425.286438,597.723633 
	C441.619263,597.723633 457.662933,597.723633 474.140656,597.723633 
	C474.140656,587.261414 474.029297,577.133362 474.166473,567.008728 
	C474.378387,551.366516 473.869141,535.646667 475.265015,520.103333 
	C477.779327,492.106262 494.076019,476.142853 521.947754,473.378906 
z"/>
<path fill="#242021" opacity="1.000000" stroke="none" 
	d="
M647.072632,37.055595 
	C705.210571,23.118050 757.208435,34.417206 803.935242,72.434502 
	C788.389709,91.166107 773.236023,109.425568 758.391479,127.312469 
	C749.530579,121.702553 741.514832,115.613411 732.657288,111.222115 
	C711.423828,100.695091 688.887512,97.293297 666.362671,105.774055 
	C637.793823,116.530449 622.876892,138.828278 619.049988,168.553986 
	C616.627441,187.370560 619.584106,205.575867 629.798889,221.869873 
	C645.967590,247.661179 670.236938,257.934906 699.899841,256.757111 
	C712.485596,256.257324 724.656372,253.731567 735.791565,247.318649 
	C738.268616,245.892059 739.302612,244.366867 739.248169,241.452896 
	C739.065125,231.645538 739.178589,221.832642 739.178589,211.499908 
	C720.709167,211.499908 702.618042,211.499908 684.200317,211.499908 
	C684.200317,192.239365 684.200317,173.503128 684.200317,154.422516 
	C727.146240,154.422516 770.032471,154.422516 813.539612,154.422516 
	C813.539612,156.351761 813.539612,158.139343 813.539612,159.926926 
	C813.539551,198.425781 813.467224,236.924973 813.646912,275.423004 
	C813.665710,279.435791 812.294617,281.794067 809.260315,284.115631 
	C778.080688,307.971619 742.936279,321.190735 703.782349,323.784149 
	C666.658813,326.243011 631.795288,318.847870 600.656921,298.072571 
	C562.885620,272.871826 542.717712,236.840073 538.945312,191.793304 
	C535.394775,149.395981 547.049316,111.676262 575.741821,79.843803 
	C594.996948,58.481434 618.988770,44.668446 647.072632,37.055595 
z"/>
<path fill="#252122" opacity="1.000000" stroke="none" 
	d="
M276.864685,233.807571 
	C304.099274,169.555237 331.225708,105.672737 358.195312,41.724091 
	C359.970398,37.515137 361.985870,35.773323 366.848328,35.848080 
	C388.171875,36.175930 409.504333,36.092785 430.831055,35.894474 
	C434.704041,35.858463 436.604919,36.876949 438.192749,40.606457 
	C476.529968,130.654236 515.022705,220.635773 553.484070,310.630737 
	C554.450317,312.891541 555.378662,315.168549 556.464233,317.772888 
	C537.124878,319.913971 518.761414,318.389252 503.753174,305.688293 
	C487.002930,291.513092 470.693268,276.698151 455.283844,261.083954 
	C428.029938,233.467850 401.675293,204.965820 374.712524,177.058456 
	C372.123962,174.379181 367.966278,171.846268 364.430695,171.692627 
	C350.368927,171.081573 336.265015,171.441040 321.663818,171.441040 
	C335.054138,220.462769 348.359253,269.172607 361.792267,318.350708 
	C321.447937,318.350708 281.593414,318.350708 241.039352,318.350708 
	C253.012009,290.101044 264.865936,262.131500 276.864685,233.807571 
z"/>
<path fill="#0FB99C" opacity="1.000000" stroke="none" 
	d="
M548.468262,539.480408 
	C537.613770,510.023468 537.906189,481.571228 554.890625,454.821564 
	C578.996155,416.856567 638.269165,409.384369 669.651001,443.052124 
	C670.652588,444.126648 671.793457,445.071320 673.682861,446.836517 
	C673.682861,439.113190 673.682861,432.283081 673.682861,425.209717 
	C690.265869,425.209717 706.194336,425.209717 722.859009,425.209717 
	C722.859009,427.007202 722.859009,428.768280 722.859009,430.529358 
	C722.858948,475.008575 722.966492,519.488220 722.801575,563.966797 
	C722.742371,579.920837 720.161804,595.486084 713.056152,610.003235 
	C702.402466,631.769226 683.730408,642.397522 660.955261,647.086670 
	C647.567810,649.843018 634.035767,651.949768 620.322021,650.856140 
	C596.772888,648.978333 573.860535,644.360107 552.556580,633.574280 
	C551.836731,633.209900 551.220703,632.640381 550.125549,631.859253 
	C555.630066,619.782288 561.108826,607.761780 566.734558,595.418762 
	C572.217468,598.003479 577.197632,600.622559 582.380981,602.745361 
	C600.151672,610.023315 618.615601,612.642944 637.683594,610.088562 
	C658.724243,607.270081 670.997498,595.028564 673.706421,574.093445 
	C674.406433,568.683655 674.255554,563.163696 674.058472,557.089417 
	C653.005920,582.530518 626.245728,588.900269 595.746521,580.660400 
	C573.778320,574.725220 558.201538,560.517639 548.468262,539.480408 
M670.846985,485.794403 
	C662.038025,468.296814 647.165955,461.785095 628.441162,462.935486 
	C613.396240,463.859802 601.439087,470.633972 594.810364,484.440704 
	C587.988037,498.650818 588.715332,513.025330 597.664185,526.253296 
	C608.983582,542.985168 634.416321,548.008240 653.845886,537.786560 
	C671.914734,528.280762 679.078430,507.038269 670.846985,485.794403 
z"/>
<path fill="#252122" opacity="1.000000" stroke="none" 
	d="
M140.369141,94.999832 
	C140.369156,75.207535 140.369156,55.915245 140.369156,36.305122 
	C166.825638,36.305122 192.874069,36.305122 219.212433,36.305122 
	C219.212433,130.288818 219.212433,224.154251 219.212433,318.372314 
	C193.005234,318.372314 166.973221,318.372314 140.369125,318.372314 
	C140.369125,243.998627 140.369125,169.749237 140.369141,94.999832 
z"/>
<path fill="#0FB99C" opacity="1.000000" stroke="none" 
	d="
M28.730789,458.781830 
	C39.925213,409.365448 77.036125,375.395050 127.768364,369.213623 
	C166.682907,364.472107 201.914566,373.233154 230.823288,401.382263 
	C231.290436,401.837158 231.714722,402.336060 232.582870,403.270782 
	C222.146820,415.322906 211.744980,427.335541 201.103455,439.624939 
	C197.225983,436.535614 193.699921,433.570496 190.015305,430.817596 
	C174.100571,418.927307 156.478577,412.452637 136.364594,414.752441 
	C111.644859,417.578827 94.229660,431.018005 84.576500,453.467834 
	C73.575111,479.053253 75.475731,504.409454 90.827660,527.879639 
	C110.449089,557.877014 151.620651,565.027649 183.413315,544.332581 
	C190.082260,539.991516 196.202164,534.806946 202.228348,530.272095 
	C212.682770,540.556335 223.221909,550.924011 233.734543,561.265564 
	C210.634155,597.808044 144.130569,612.781494 95.694061,593.099304 
	C44.942188,572.476318 15.160466,513.128784 28.730789,458.781830 
z"/>
<path fill="#0FB99C" opacity="1.000000" stroke="none" 
	d="
M744.059875,526.808716 
	C740.228943,498.238770 746.724548,473.003235 766.127747,451.909241 
	C787.741028,428.412476 815.207886,419.998108 846.496216,422.092102 
	C887.515564,424.837341 921.444275,455.938721 929.048584,496.184875 
	C937.475403,540.784119 907.443420,590.386963 857.102173,599.698792 
	C817.937378,606.943176 784.466248,596.623962 759.516479,564.236755 
	C751.157715,553.386292 746.287292,540.811340 744.059875,526.808716 
M868.796753,546.290344 
	C883.855530,529.121887 886.017090,503.761444 873.487305,484.590698 
	C863.594116,469.454285 849.181335,462.759796 831.172363,464.542999 
	C812.695068,466.372620 800.200073,476.564911 794.572571,493.946472 
	C792.187988,501.311676 791.474792,509.718811 792.137268,517.469910 
	C793.727905,536.080811 803.418274,550.010803 821.115356,556.480225 
	C838.343689,562.778198 854.600342,559.912720 868.796753,546.290344 
z"/>
<path fill="#0FB99C" opacity="1.000000" stroke="none" 
	d="
M381.999725,598.066895 
	C372.683990,598.066956 363.868134,598.066956 354.567749,598.066956 
	C354.567749,592.324585 354.567749,586.896790 354.567749,579.950562 
	C352.424347,581.872131 351.269653,582.856201 350.171356,583.899536 
	C327.233398,605.688904 290.385529,604.705811 270.189240,594.064270 
	C249.931717,583.390381 241.785583,565.880493 243.103455,543.597900 
	C244.376236,522.077454 254.834824,506.697174 275.110535,498.909973 
	C299.526886,489.532532 324.314545,490.519989 349.112885,497.640045 
	C350.549438,498.052460 351.978577,498.493622 353.426300,498.861755 
	C353.706818,498.933075 354.057983,498.726471 354.375977,498.645691 
	C356.377136,483.612366 347.956451,470.690277 333.033997,467.114258 
	C315.691925,462.958374 298.625519,465.642029 281.818298,470.626007 
	C278.026306,471.750519 274.291748,473.068817 270.047760,474.455719 
	C265.941986,462.023224 261.940186,449.905548 257.717072,437.117706 
	C258.155212,436.880035 258.719696,436.513763 259.329071,436.251923 
	C290.220154,422.976074 322.184845,418.633118 354.973236,426.924683 
	C382.259491,433.824860 397.709930,453.115540 401.002502,482.027527 
	C401.698151,488.136078 402.055908,494.314850 402.077209,500.463013 
	C402.183594,531.118958 402.125824,561.775452 402.125824,592.431763 
	C402.125824,594.072327 402.125824,595.712830 402.125824,598.066895 
	C395.359375,598.066895 388.929504,598.066895 381.999725,598.066895 
M328.327789,522.070374 
	C319.796082,521.839783 311.344818,522.147583 303.426117,525.893799 
	C294.011627,530.347656 289.584259,538.500122 290.801636,549.106262 
	C291.754608,557.408936 298.070648,563.889160 307.534607,566.045959 
	C317.758362,568.375854 327.753693,567.372681 337.310425,563.157471 
	C350.715973,557.244690 357.620819,544.481567 355.133972,530.295227 
	C354.917694,529.061584 353.311554,527.428589 352.069977,527.122986 
	C344.515533,525.263733 336.879639,523.735413 328.327789,522.070374 
z"/>
<path fill="#0EB89C" opacity="1.000000" stroke="none" 
	d="
M521.504639,473.437012 
	C494.076019,476.142853 477.779327,492.106262 475.265015,520.103333 
	C473.869141,535.646667 474.378387,551.366516 474.166473,567.008728 
	C474.029297,577.133362 474.140656,587.261414 474.140656,597.723633 
	C457.662933,597.723633 441.619263,597.723633 425.286438,597.723633 
	C425.286438,540.210266 425.286438,482.853912 425.286438,425.220764 
	C441.522461,425.220764 457.573853,425.220764 474.102783,425.220764 
	C474.102783,435.978088 474.102783,446.499664 474.102783,457.021240 
	C485.394714,434.258911 501.926117,420.403473 528.873535,421.902252 
	C528.873535,439.025848 528.873535,455.757935 528.873535,472.895142 
	C526.491699,473.061493 524.219727,473.220184 521.504639,473.437012 
z"/>
<path fill="#FDFEFE" opacity="1.000000" stroke="none" 
	d="
M670.993652,486.148682 
	C679.078430,507.038269 671.914734,528.280762 653.845886,537.786560 
	C634.416321,548.008240 608.983582,542.985168 597.664185,526.253296 
	C588.715332,513.025330 587.988037,498.650818 594.810364,484.440704 
	C601.439087,470.633972 613.396240,463.859802 628.441162,462.935486 
	C647.165955,461.785095 662.038025,468.296814 670.993652,486.148682 
z"/>
<path fill="#FDFEFE" opacity="1.000000" stroke="none" 
	d="
M868.546387,546.541626 
	C854.600342,559.912720 838.343689,562.778198 821.115356,556.480225 
	C803.418274,550.010803 793.727905,536.080811 792.137268,517.469910 
	C791.474792,509.718811 792.187988,501.311676 794.572571,493.946472 
	C800.200073,476.564911 812.695068,466.372620 831.172363,464.542999 
	C849.181335,462.759796 863.594116,469.454285 873.487305,484.590698 
	C886.017090,503.761444 883.855530,529.121887 868.546387,546.541626 
z"/>
<path fill="#FCFEFE" opacity="1.000000" stroke="none" 
	d="
M328.799377,522.083496 
	C336.879639,523.735413 344.515533,525.263733 352.069977,527.122986 
	C353.311554,527.428589 354.917694,529.061584 355.133972,530.295227 
	C357.620819,544.481567 350.715973,557.244690 337.310425,563.157471 
	C327.753693,567.372681 317.758362,568.375854 307.534607,566.045959 
	C298.070648,563.889160 291.754608,557.408936 290.801636,549.106262 
	C289.584259,538.500122 294.011627,530.347656 303.426117,525.893799 
	C311.344818,522.147583 319.796082,521.839783 328.799377,522.083496 
z"/>
</svg>
