<?xml version="1.0" encoding="UTF-8"?>
<!DOCTYPE svg PUBLIC "-//W3C//DTD SVG 1.1//EN" "http://www.w3.org/Graphics/SVG/1.1/DTD/svg11.dtd">
<svg xmlns="http://www.w3.org/2000/svg" version="1.1" width="1000px" height="691px" style="shape-rendering:geometricPrecision; text-rendering:geometricPrecision; image-rendering:optimizeQuality; fill-rule:evenodd; clip-rule:evenodd" xmlns:xlink="http://www.w3.org/1999/xlink">
<g><path style="opacity:0.971" fill="#221f1f" d="M 699.5,8.5 C 751.757,0.256704 800.09,11.7567 844.5,43C 848.34,45.6744 851.673,48.8411 854.5,52.5C 838.001,72.8298 821.501,93.1631 805,113.5C 794.297,105.146 782.797,97.979 770.5,92C 746.889,83.0757 723.222,82.7423 699.5,91C 680.912,99.5898 667.745,113.423 660,132.5C 650.108,160.106 651.775,187.106 665,213.5C 677.768,233.581 695.935,245.748 719.5,250C 730.5,250.667 741.5,250.667 752.5,250C 762.804,248.177 772.471,244.677 781.5,239.5C 782.499,227.518 782.832,215.518 782.5,203.5C 762.5,203.5 742.5,203.5 722.5,203.5C 722.5,182.167 722.5,160.833 722.5,139.5C 770.167,139.5 817.833,139.5 865.5,139.5C 865.5,186.167 865.5,232.833 865.5,279.5C 864.448,279.351 863.448,279.517 862.5,280C 840.479,298.512 815.479,311.512 787.5,319C 749.942,329.312 712.608,328.979 675.5,318C 620.718,300.218 585.218,263.718 569,208.5C 554.629,142.089 572.795,86.5893 623.5,42C 646.913,24.9754 672.246,13.8087 699.5,8.5 Z"/></g>
<g><path style="opacity:0.978" fill="#221f1f" d="M 133.5,11.5 C 162.5,11.5 191.5,11.5 220.5,11.5C 220.5,114.5 220.5,217.5 220.5,320.5C 191.5,320.5 162.5,320.5 133.5,320.5C 133.5,217.5 133.5,114.5 133.5,11.5 Z"/></g>
<g><path style="opacity:0.97" fill="#221f1f" d="M 371.5,11.5 C 399.741,11.1715 427.907,11.5049 456,12.5C 499.355,113.923 542.689,215.256 586,316.5C 586.667,317.833 586.667,319.167 586,320.5C 574.52,319.921 563.02,319.088 551.5,318C 541.143,314.321 531.476,309.321 522.5,303C 506.032,288.2 489.865,273.033 474,257.5C 444.468,226.969 415.301,196.136 386.5,165C 384.404,163.234 382.071,161.901 379.5,161C 363.5,160.333 347.5,160.333 331.5,161C 345.789,213.995 360.456,266.828 375.5,319.5C 330.838,320.5 286.172,320.833 241.5,320.5C 284.71,217.124 328.043,114.124 371.5,11.5 Z"/></g>
<g><path style="opacity:0.968" fill="#0db89a" d="M 114.5,372.5 C 148.091,368.433 179.758,374.266 209.5,390C 218.269,396.266 226.603,403.1 234.5,410.5C 223.208,424.461 211.541,438.127 199.5,451.5C 177.187,429.229 150.521,420.729 119.5,426C 92.5016,433.666 75.6683,451.166 69,478.5C 63.0764,505.131 68.0764,529.464 84,551.5C 110.108,577.324 139.941,582.491 173.5,567C 183.299,561.354 192.465,554.854 201,547.5C 212.988,558.154 224.321,569.488 235,581.5C 235.667,582.5 235.667,583.5 235,584.5C 200.839,619.774 159.339,633.274 110.5,625C 64.6426,615.469 33.1426,588.969 16,545.5C -0.877506,493.225 9.28916,447.058 46.5,407C 64.9496,389.692 86.7829,378.859 112,374.5C 113.376,374.316 114.209,373.649 114.5,372.5 Z"/></g>
<g><path style="opacity:0.96" fill="#0db89a" d="M 545.5,429.5 C 549.167,429.5 552.833,429.5 556.5,429.5C 556.5,448.833 556.5,468.167 556.5,487.5C 519.005,487.824 499.172,506.824 497,544.5C 496.5,570.831 496.333,597.165 496.5,623.5C 478.167,623.5 459.833,623.5 441.5,623.5C 441.5,560.167 441.5,496.833 441.5,433.5C 459.833,433.5 478.167,433.5 496.5,433.5C 496.333,444.838 496.5,456.172 497,467.5C 506.103,445.539 522.269,432.872 545.5,429.5 Z"/></g>
<g><path style="opacity:0.967" fill="#0db89a" d="M 646.5,429.5 C 672.463,428.092 693.963,437.092 711,456.5C 711.5,448.841 711.666,441.174 711.5,433.5C 729.833,433.5 748.167,433.5 766.5,433.5C 766.667,488.168 766.5,542.834 766,597.5C 761.621,644.38 736.121,671.38 689.5,678.5C 650.535,683.781 613.535,677.614 578.5,660C 578.043,659.586 577.709,659.086 577.5,658.5C 583.774,644.955 590.274,631.621 597,618.5C 625.432,635.408 655.599,639.575 687.5,631C 696.276,627.224 702.776,621.058 707,612.5C 711.754,601.345 713.42,590.012 712,578.5C 691.774,603.912 665.607,613.079 633.5,606C 594.467,594.792 572.467,568.958 567.5,528.5C 564.363,491.067 578.363,461.9 609.5,441C 621.178,434.604 633.512,430.771 646.5,429.5 Z M 658.5,476.5 C 676.676,473.612 691.842,478.946 704,492.5C 715.333,510.167 715.333,527.833 704,545.5C 694.474,556.676 682.307,562.009 667.5,561.5C 634.56,558.948 620.06,541.281 624,508.5C 628.997,490.665 640.497,479.998 658.5,476.5 Z"/></g>
<g><path style="opacity:0.968" fill="#0db89a" d="M 882.5,429.5 C 929.093,428.365 962.926,448.365 984,489.5C 1000.29,534.395 990.789,572.895 955.5,605C 910.933,634.798 866.599,634.798 822.5,605C 785.214,569.748 777.047,528.915 798,482.5C 817.341,450.747 845.507,433.08 882.5,429.5 Z M 881.5,477.5 C 912.706,476.876 931.206,491.876 937,522.5C 939.329,543.887 931.829,560.721 914.5,573C 887.412,585.52 865.246,579.687 848,555.5C 838.819,535.8 839.485,516.467 850,497.5C 857.929,486.628 868.429,479.961 881.5,477.5 Z"/></g>
<g><path style="opacity:0.964" fill="#0db89a" d="M 313.5,431.5 C 325.505,431.333 337.505,431.5 349.5,432C 390.966,437.133 413.966,460.466 418.5,502C 418.488,542.292 418.488,582.792 418.5,623.5C 400.83,623.667 383.164,623.5 365.5,623C 364.69,617.249 364.19,611.416 364,605.5C 341.113,625.427 314.947,631.26 285.5,623C 254.061,611.983 240.561,589.816 245,556.5C 249.955,532.212 264.455,517.045 288.5,511C 314.345,504.812 339.845,505.979 365,514.5C 365.859,492.688 355.359,480.855 333.5,479C 313.326,477.901 293.826,481.067 275,488.5C 274.228,488.355 273.561,488.022 273,487.5C 268.501,474.172 264.001,460.839 259.5,447.5C 276.71,439.093 294.71,433.759 313.5,431.5 Z M 323.5,540.5 C 332.213,540.248 340.88,540.748 349.5,542C 355.551,543.016 361.218,545.016 366.5,548C 367.86,565.627 360.527,577.96 344.5,585C 332.785,589.19 321.119,589.19 309.5,585C 301.469,581.282 297.469,574.949 297.5,566C 297.438,558.171 300.438,551.838 306.5,547C 311.888,543.752 317.554,541.585 323.5,540.5 Z"/></g>
</svg>
